# MissileCircle.obj
# 미사일 원형 메쉬 - Missile_Yellow.png UV에 맞춤
# 크기: 지름 1유니트 (반지름 0.5), 평면=XY, Z=0
# 16각형 근사(팬 구조: 중심 1점 + 외곽 16점)
# 앞/뒤 와인딩 모두 포함(더블사이드): Unity 임포트 시 와인딩 해석에 관계없이 렌더링됨
o MissileCircle

v 0.000000 0.000000 0.000000
v 0.000000 0.500000 0.000000
v 0.191342 0.461940 0.000000
v 0.353553 0.353553 0.000000
v 0.461940 0.191342 0.000000
v 0.500000 0.000000 0.000000
v 0.461940 -0.191342 0.000000
v 0.353553 -0.353553 0.000000
v 0.191342 -0.461940 0.000000
v 0.000000 -0.500000 0.000000
v -0.191342 -0.461940 0.000000
v -0.353553 -0.353553 0.000000
v -0.461940 -0.191342 0.000000
v -0.500000 -0.000000 0.000000
v -0.461940 0.191342 0.000000
v -0.353553 0.353553 0.000000
v -0.191342 0.461940 0.000000

vn 0.0 0.0 1.0
vn 0.0 0.0 -1.0

vt 0.484375 0.515625
vt 0.484375 0.937500
vt 0.645820 0.905387
vt 0.782686 0.813936
vt 0.874137 0.677070
vt 0.906250 0.515625
vt 0.874137 0.354180
vt 0.782686 0.217314
vt 0.645820 0.125863
vt 0.484375 0.093750
vt 0.322930 0.125863
vt 0.186064 0.217314
vt 0.094613 0.354180
vt 0.062500 0.515625
vt 0.094613 0.677070
vt 0.186064 0.813936
vt 0.322930 0.905387

f 1/1/1 3/3/1 2/2/1
f 1/1/1 4/4/1 3/3/1
f 1/1/1 5/5/1 4/4/1
f 1/1/1 6/6/1 5/5/1
f 1/1/1 7/7/1 6/6/1
f 1/1/1 8/8/1 7/7/1
f 1/1/1 9/9/1 8/8/1
f 1/1/1 10/10/1 9/9/1
f 1/1/1 11/11/1 10/10/1
f 1/1/1 12/12/1 11/11/1
f 1/1/1 13/13/1 12/12/1
f 1/1/1 14/14/1 13/13/1
f 1/1/1 15/15/1 14/14/1
f 1/1/1 16/16/1 15/15/1
f 1/1/1 17/17/1 16/16/1
f 1/1/1 2/2/1 17/17/1
f 1/1/2 2/2/2 3/3/2
f 1/1/2 3/3/2 4/4/2
f 1/1/2 4/4/2 5/5/2
f 1/1/2 5/5/2 6/6/2
f 1/1/2 6/6/2 7/7/2
f 1/1/2 7/7/2 8/8/2
f 1/1/2 8/8/2 9/9/2
f 1/1/2 9/9/2 10/10/2
f 1/1/2 10/10/2 11/11/2
f 1/1/2 11/11/2 12/12/2
f 1/1/2 12/12/2 13/13/2
f 1/1/2 13/13/2 14/14/2
f 1/1/2 14/14/2 15/15/2
f 1/1/2 15/15/2 16/16/2
f 1/1/2 16/16/2 17/17/2
f 1/1/2 17/17/2 2/2/2
